<svg xmlns="http://www.w3.org/2000/svg" viewBox="0 0 1200 800">
    <!-- Grid -->
    <pattern id="smallGrid" width="10" height="10" patternUnits="userSpaceOnUse">
        <path d="M 10 0 L 0 0 0 10" fill="none" stroke="#f0f0f0" stroke-width="0.5"/>
    </pattern>
    <rect width="1200" height="800" fill="url(#smallGrid)" />

    <!-- Power Rails -->
    <g stroke="black" stroke-width="2">
        <!-- +15V -->
        <line x1="50" y1="50" x2="1150" y2="50" stroke="red"/>
        <text x="20" y="55" fill="red" font-size="12">+15V</text>
        
        <!-- -15V -->
        <line x1="50" y1="750" x2="1150" y2="750" stroke="blue"/>
        <text x="20" y="755" fill="blue" font-size="12">-15V</text>
        
        <!-- Ground Bus -->
        <line x1="50" y1="400" x2="1150" y2="400" stroke="black"/>
        <path d="M 30 390 L 50 390 L 40 400 L 30 390" fill="black"/>
    </g>

    <!-- Input Stage - Temperature -->
    <g transform="translate(100,100)">
        <!-- Wheatstone Bridge -->
        <path d="M 0 0 L 50 0 M 25 0 L 25 50" stroke="black" stroke-width="2" fill="none"/>
        <circle cx="25" cy="0" r="2" fill="black"/>
        <!-- Thermistor Symbol -->
        <path d="M 15 20 L 35 20 L 35 30 L 15 30 Z" fill="none" stroke="black" stroke-width="2"/>
        <text x="40" y="25" font-size="10">RT1</text>
        <text x="40" y="35" font-size="8">10kΩ NTC</text>
        <!-- Balance Resistors -->
        <path d="M 15 60 L 35 60 L 35 70 L 15 70 Z" fill="none" stroke="black" stroke-width="2"/>
        <text x="40" y="65" font-size="10">R1</text>
        <text x="40" y="75" font-size="8">10kΩ 0.1%</text>
        
        <!-- Instrumentation Amplifier -->
        <rect x="80" y="20" width="60" height="40" fill="none" stroke="black" stroke-width="2"/>
        <text x="85" y="40" font-size="10">AD620</text>
        <text x="85" y="50" font-size="8">G=100</text>
    </g>

    <!-- Input Stage - Pressure -->
    <g transform="translate(100,200)">
        <!-- Pressure Sensor -->
        <rect x="0" y="0" width="40" height="60" fill="none" stroke="black" stroke-width="2"/>
        <text x="5" y="30" font-size="10">MPX</text>
        <text x="5" y="40" font-size="10">5100</text>
        
        <!-- Differential Amp -->
        <path d="M 60 20 L 60 80 L 100 50 Z" fill="none" stroke="black" stroke-width="2"/>
        <text x="70" y="55" font-size="10">OP27</text>
    </g>

    <!-- Filter Chain -->
    <g transform="translate(300,150)">
        <!-- Anti-aliasing Filter -->
        <g>
            <!-- Op-amp Symbol -->
            <path d="M 0 0 L 0 60 L 40 30 Z" fill="none" stroke="black" stroke-width="2"/>
            <text x="10" y="35" font-size="10">OP27</text>
            
            <!-- RC Network -->
            <path d="M -30 20 L -10 20" stroke="black" stroke-width="2"/>
            <path d="M -10 10 L -10 30 L 10 30 L 10 10 Z" fill="none" stroke="black" stroke-width="2"/>
            <text x="-5" y="25" font-size="8">10kΩ</text>
            
            <path d="M 10 30 L 10 50" stroke="black" stroke-width="2"/>
            <path d="M 5 50 L 15 50 M 5 55 L 15 55" stroke="black" stroke-width="2"/>
            <text x="20" y="55" font-size="8">100nF</text>
        </g>
    </g>

    <!-- Comparator Network -->
    <g transform="translate(500,150)">
        <!-- Upper Comparator -->
        <path d="M 0 0 L 0 60 L 40 30 Z" fill="none" stroke="black" stroke-width="2"/>
        <text x="10" y="35" font-size="10">LM339</text>
        
        <!-- Lower Comparator -->
        <path d="M 0 80 L 0 140 L 40 110 Z" fill="none" stroke="black" stroke-width="2"/>
        <text x="10" y="115" font-size="10">LM339</text>
        
        <!-- Reference -->
        <rect x="60" y="40" width="40" height="60" fill="none" stroke="black" stroke-width="2"/>
        <text x="65" y="70" font-size="10">LM399</text>
        <text x="65" y="80" font-size="8">6.95V</text>
    </g>

    <!-- Summing Amplifier -->
    <g transform="translate(700,150)">
        <!-- Op-amp -->
        <path d="M 0 0 L 0 60 L 40 30 Z" fill="none" stroke="black" stroke-width="2"/>
        <text x="10" y="35" font-size="10">OP477</text>
        
        <!-- Input Resistors -->
        <path d="M -30 10 L -10 10" stroke="black" stroke-width="2"/>
        <path d="M -10 5 L 10 5 L 10 15 L -10 15 Z" fill="none" stroke="black" stroke-width="2"/>
        <text x="-5" y="20" font-size="8">20kΩ</text>
        
        <!-- Feedback -->
        <path d="M 40 30 L 60 30 L 60 10 L 40 10" stroke="black" stroke-width="2"/>
        <path d="M 45 5 L 55 5 L 55 15 L 45 15 Z" fill="none" stroke="black" stroke-width="2"/>
        <text x="65" y="15" font-size="8">20kΩ</text>
    </g>

    <!-- Power Management -->
    <g transform="translate(900,100)">
        <!-- Voltage Regulator -->
        <rect x="0" y="0" width="80" height="120" fill="none" stroke="black" stroke-width="2"/>
        <text x="10" y="30" font-size="10">LM317/337</text>
        <text x="10" y="45" font-size="8">±15V Reg</text>
        
        <!-- Decoupling Caps -->
        <path d="M 100 20 L 100 40" stroke="black" stroke-width="2"/>
        <path d="M 95 40 L 105 40 M 95 45 L 105 45" stroke="black" stroke-width="2"/>
        <text x="110" y="45" font-size="8">10µF</text>
        
        <path d="M 100 60 L 100 80" stroke="black" stroke-width="2"/>
        <path d="M 95 80 L 105 80 M 95 85 L 105 85" stroke="black" stroke-width="2"/>
        <text x="110" y="85" font-size="8">0.1µF</text>
    </g>

    <!-- Component Values/Notes -->
    <g transform="translate(50,600)">
        <text x="0" y="0" font-size="14" font-weight="bold">Component Specifications:</text>
        <text x="0" y="20" font-size="12">1. All resistors 0.1% metal film unless noted</text>
        <text x="0" y="40" font-size="12">2. All capacitors MLCC, X7R or better</text>
        <text x="0" y="60" font-size="12">3. Op-amps: Dual supply ±15V</text>
        <text x="0" y="80" font-size="12">4. Voltage reference trimmed to ±0.05%</text>
        <text x="0" y="100" font-size="12">5. Thermistor: β=3950K, R25=10kΩ</text>
    </g>

    <!-- Signal Flow Arrows -->
    <g stroke="black" stroke-width="1" fill="none" marker-end="url(#arrowhead)">
        <defs>
            <marker id="arrowhead" markerWidth="10" markerHeight="7" refX="9" refY="3.5" orient="auto">
                <polygon points="0 0, 10 3.5, 0 7" fill="black"/>
            </marker>
        </defs>
        <path d="M 250 150 L 290 150"/>
        <path d="M 450 150 L 490 150"/>
        <path d="M 650 150 L 690 150"/>
    </g>
</svg>
