<svg xmlns="http://www.w3.org/2000/svg" viewBox="0 0 1000 800">
    <!-- Grid Background -->
    <pattern id="grid" width="20" height="20" patternUnits="userSpaceOnUse">
        <path d="M 20 0 L 0 0 0 20" fill="none" stroke="#f0f0f0" stroke-width="0.5"/>
    </pattern>
    <rect width="1000" height="800" fill="url(#grid)" />

    <!-- Temperature Sensing Circuit -->
    <g transform="translate(50,50)">
        <!-- Wheatstone Bridge -->
        <line x1="0" y1="0" x2="100" y2="0" stroke="black" stroke-width="2"/>
        <path d="M 50 0 L 50 100" stroke="black" stroke-width="2"/>
        <path d="M 40 25 L 60 25 L 60 45 L 40 45 Z" fill="none" stroke="black" stroke-width="2"/>
        <text x="65" y="40" font-size="12">10kΩ NTC</text>
        <path d="M 40 55 L 60 55 L 60 75 L 40 75 Z" fill="none" stroke="black" stroke-width="2"/>
        <text x="65" y="70" font-size="12">10kΩ 0.1%</text>
        
        <!-- Instrumentation Amplifier -->
        <rect x="120" y="20" width="80" height="60" fill="none" stroke="black" stroke-width="2"/>
        <text x="130" y="50" font-size="12">AD620</text>
        <text x="130" y="65" font-size="10">G=100</text>
    </g>

    <!-- Pressure Sensing -->
    <g transform="translate(50,200)">
        <!-- Pressure Sensor -->
        <rect x="0" y="0" width="60" height="40" fill="none" stroke="black" stroke-width="2"/>
        <text x="5" y="25" font-size="12">MPX5100</text>
        
        <!-- Differential Amplifier -->
        <path d="M 100 10 L 100 70 L 150 40 Z" fill="none" stroke="black" stroke-width="2"/>
        <text x="110" y="45" font-size="12">OP27</text>
    </g>

    <!-- Primary Filter Bank -->
    <g transform="translate(250,50)">
        <!-- Anti-aliasing Filter -->
        <path d="M 0 40 L 20 40" stroke="black" stroke-width="2"/>
        <circle cx="40" cy="40" r="20" fill="none" stroke="black" stroke-width="2"/>
        <text x="30" y="45" font-size="12">1kHz</text>
        
        <!-- Active Low-Pass -->
        <path d="M 80 20 L 80 80 L 130 50 Z" fill="none" stroke="black" stroke-width="2"/>
        <path d="M 100 70 L 100 90" stroke="black" stroke-width="2"/>
        <path d="M 90 90 L 110 90" stroke="black" stroke-width="2"/>
        <text x="115" y="95" font-size="10">10kΩ</text>
    </g>

    <!-- Backup Filter Chain -->
    <g transform="translate(250,200)">
        <!-- Secondary Filter -->
        <path d="M 0 40 L 20 40" stroke="black" stroke-width="2"/>
        <circle cx="40" cy="40" r="20" fill="none" stroke="black" stroke-width="2"/>
        <text x="30" y="45" font-size="12">100Hz</text>
        
        <!-- Buffer -->
        <path d="M 80 20 L 80 80 L 130 50 Z" fill="none" stroke="black" stroke-width="2"/>
    </g>

    <!-- Analog Safety Circuit -->
    <g transform="translate(450,50)">
        <!-- Window Comparator -->
        <path d="M 0 0 L 0 60 L 50 30 Z" fill="none" stroke="black" stroke-width="2"/>
        <path d="M 0 80 L 0 140 L 50 110 Z" fill="none" stroke="black" stroke-width="2"/>
        <text x="60" y="35" font-size="12">Upper Limit</text>
        <text x="60" y="115" font-size="12">Lower Limit</text>
        
        <!-- Reference Voltage -->
        <rect x="100" y="40" width="60" height="40" fill="none" stroke="black" stroke-width="2"/>
        <text x="105" y="65" font-size="12">LM399</text>
    </g>

    <!-- Power Supply -->
    <g transform="translate(650,50)">
        <!-- Primary Supply -->
        <rect x="0" y="0" width="100" height="60" fill="none" stroke="black" stroke-width="2"/>
        <text x="10" y="35" font-size="12">±15V</text>
        
        <!-- Backup Battery -->
        <rect x="0" y="80" width="100" height="40" fill="none" stroke="black" stroke-width="2"/>
        <text x="10" y="105" font-size="12">Battery</text>
        
        <!-- Voltage Monitor -->
        <rect x="120" y="30" width="80" height="40" fill="none" stroke="black" stroke-width="2"/>
        <text x="125" y="55" font-size="12">Monitor</text>
    </g>

    <!-- Analog Summing Stage -->
    <g transform="translate(450,200)">
        <!-- Summing Amplifier -->
        <path d="M 0 0 L 0 100 L 80 50 Z" fill="none" stroke="black" stroke-width="2"/>
        <text x="90" y="55" font-size="12">Σ</text>
        
        <!-- Feedback Network -->
        <path d="M 80 50 C 100 50 100 80 80 80" fill="none" stroke="black" stroke-width="2"/>
        <path d="M 60 75 L 80 75 L 80 85 L 60 85" fill="none" stroke="black" stroke-width="2"/>
        <text x="85" y="90" font-size="10">20kΩ</text>
    </g>

    <!-- Component Values -->
    <g transform="translate(50,400)">
        <text x="0" y="0" font-size="14" font-weight="bold">Component Specifications:</text>
        <text x="0" y="25" font-size="12">1. Temperature Bridge: 10kΩ NTC + 0.1% precision resistors</text>
        <text x="0" y="45" font-size="12">2. Pressure Sensor: MPX5100 (0-100kPa)</text>
        <text x="0" y="65" font-size="12">3. Op-Amps: OP27 (Ultra-low noise)</text>
        <text x="0" y="85" font-size="12">4. Instrumentation Amp: AD620 (G=100)</text>
        <text x="0" y="105" font-size="12">5. Reference: LM399 (6.95V ±0.001%)</text>
        <text x="0" y="125" font-size="12">6. Filters: Butterworth 2nd order</text>
    </g>

    <!-- Signal Path -->
    <g stroke="black" stroke-width="1" stroke-dasharray="5,5" fill="none">
        <path d="M 200 50 L 250 50"/>
        <path d="M 380 50 L 450 50"/>
        <path d="M 530 50 L 650 50"/>
    </g>
</svg>
